<svg width="800" height="800" xmlns="http://www.w3.org/2000/svg">
  <!-- Background -->
  <rect width="100%" height="100%" fill="#a9a9a9"/>
  
  <!-- Cracked Roads -->
  <path d="M0 400 H800 M400 0 V800" stroke="#696969" stroke-width="40" stroke-dasharray="20,10,5,10"/>
  
  <!-- Destroyed Buildings -->
  <rect x="50" y="50" width="150" height="150" fill="#8b4513" stroke="#000000" stroke-width="2"/>
  <rect x="600" y="100" width="120" height="180" fill="#a0522d" stroke="#000000" stroke-width="2"/>
  <rect x="100" y="550" width="200" height="200" fill="#cd853f" stroke="#000000" stroke-width="2"/>
  <rect x="550" y="500" width="180" height="150" fill="#d2691e" stroke="#000000" stroke-width="2"/>
  
  <!-- Rubble -->
  <circle cx="300" cy="200" r="50" fill="#808080"/>
  <circle cx="650" cy="400" r="70" fill="#708090"/>
  <circle cx="200" cy="600" r="60" fill="#778899"/>
  
  <!-- Abandoned Vehicles -->
  <rect x="350" y="150" width="60" height="30" fill="#4682b4" stroke="#000000" stroke-width="2"/>
  <rect x="500" y="650" width="60" height="30" fill="#5f9ea0" stroke="#000000" stroke-width="2"/>
  
  <!-- Overgrown Areas -->
  <circle cx="100" cy="400" r="80" fill="#556b2f"/>
  <circle cx="700" cy="700" r="90" fill="#6b8e23"/>
  
  <!-- Debris -->
  <circle cx="450" cy="350" r="5" fill="#2f4f4f"/>
  <circle cx="470" cy="360" r="3" fill="#2f4f4f"/>
  <circle cx="440" cy="370" r="4" fill="#2f4f4f"/>
  <circle cx="250" cy="550" r="5" fill="#2f4f4f"/>
  <circle cx="260" cy="540" r="3" fill="#2f4f4f"/>
  <circle cx="270" cy="560" r="4" fill="#2f4f4f"/>
</svg>